# xmcd
#
# Track frame offsets:
#	150
#	22808
#	46257
#	60720
#	90610
#	104478
#	129038
#	146430
#	178658
#	202288
#
# Disc length: 3251 seconds
#
# Revision: 4216322896
# Processed by: cddbd v1.5.2PL0 Copyright (c) Steve Scherf et al.
# Submitted via: EZCDAudioConverter 8.0.0.1
#
DISCID=840cb10a
DTITLE=Little Freddie King - Messin' Around tha House
DYEAR=2008
DGENRE=Traditional American
TTITLE0=Messin' Around tha House 
TTITLE1=Can't Do Nothing Babe 
TTITLE2=Dig Me a Hole 
TTITLE3=Goin Out Da Mountain 
TTITLE4=Sad Sad News 
TTITLE5=The Things I Use to Do 
TTITLE6=Kinghead Shuffle 
TTITLE7=Bad News
TTITLE8=Goin' Upstairs 
TTITLE9=Washerteria Woman 
EXTD=
EXTT0=
EXTT1=
EXTT2=
EXTT3=
EXTT4=
EXTT5=
EXTT6=
EXTT7=
EXTT8=
EXTT9=
PLAYORDER=
